<svg xmlns="http://www.w3.org/2000/svg" width="483" height="483"><rect x="0" y="0" width="100%" height="100%" fill="rgb(61, 136, 148)" /><rect x="0" y="13" width="100%" height="11" opacity="0.07200000000000001" fill="#ddd" /><rect x="0" y="36" width="100%" height="15" opacity="0.10666666666666667" fill="#ddd" /><rect x="0" y="70" width="100%" height="12" opacity="0.08066666666666666" fill="#222" /><rect x="0" y="97" width="100%" height="11" opacity="0.07200000000000001" fill="#ddd" /><rect x="0" y="121" width="100%" height="6" opacity="0.028666666666666667" fill="#222" /><rect x="0" y="133" width="100%" height="19" opacity="0.14133333333333334" fill="#ddd" /><rect x="0" y="160" width="100%" height="8" opacity="0.046" fill="#222" /><rect x="0" y="176" width="100%" height="17" opacity="0.12400000000000001" fill="#ddd" /><rect x="0" y="213" width="100%" height="5" opacity="0.02" fill="#ddd" /><rect x="0" y="232" width="100%" height="13" opacity="0.08933333333333333" fill="#ddd" /><rect x="0" y="263" width="100%" height="7" opacity="0.03733333333333333" fill="#ddd" /><rect x="0" y="290" width="100%" height="15" opacity="0.10666666666666667" fill="#ddd" /><rect x="0" y="317" width="100%" height="18" opacity="0.13266666666666665" fill="#222" /><rect x="0" y="346" width="100%" height="18" opacity="0.13266666666666665" fill="#222" /><rect x="0" y="383" width="100%" height="18" opacity="0.13266666666666665" fill="#222" /><rect x="0" y="407" width="100%" height="10" opacity="0.06333333333333334" fill="#222" /><rect x="0" y="436" width="100%" height="11" opacity="0.07200000000000001" fill="#ddd" /><rect x="0" y="463" width="100%" height="20" opacity="0.15" fill="#222" /><rect x="13" y="0" width="11" height="100%" opacity="0.07200000000000001" fill="#ddd" /><rect x="36" y="0" width="15" height="100%" opacity="0.10666666666666667" fill="#ddd" /><rect x="70" y="0" width="12" height="100%" opacity="0.08066666666666666" fill="#222" /><rect x="97" y="0" width="11" height="100%" opacity="0.07200000000000001" fill="#ddd" /><rect x="121" y="0" width="6" height="100%" opacity="0.028666666666666667" fill="#222" /><rect x="133" y="0" width="19" height="100%" opacity="0.14133333333333334" fill="#ddd" /><rect x="160" y="0" width="8" height="100%" opacity="0.046" fill="#222" /><rect x="176" y="0" width="17" height="100%" opacity="0.12400000000000001" fill="#ddd" /><rect x="213" y="0" width="5" height="100%" opacity="0.02" fill="#ddd" /><rect x="232" y="0" width="13" height="100%" opacity="0.08933333333333333" fill="#ddd" /><rect x="263" y="0" width="7" height="100%" opacity="0.03733333333333333" fill="#ddd" /><rect x="290" y="0" width="15" height="100%" opacity="0.10666666666666667" fill="#ddd" /><rect x="317" y="0" width="18" height="100%" opacity="0.13266666666666665" fill="#222" /><rect x="346" y="0" width="18" height="100%" opacity="0.13266666666666665" fill="#222" /><rect x="383" y="0" width="18" height="100%" opacity="0.13266666666666665" fill="#222" /><rect x="407" y="0" width="10" height="100%" opacity="0.06333333333333334" fill="#222" /><rect x="436" y="0" width="11" height="100%" opacity="0.07200000000000001" fill="#ddd" /><rect x="463" y="0" width="20" height="100%" opacity="0.15" fill="#222" /></svg>